<svg clip-rule="evenodd" fill-rule="evenodd" stroke-linejoin="round" stroke-miterlimit="2" viewBox="0 0 560 400" xmlns="http://www.w3.org/2000/svg"><g transform="matrix(1.00321 0 0 1.00494 129.559 49.8031)"><g fill-rule="nonzero"><path d="m137.07.3c-.71.12-3.39.46-5.95.76s-6.52.9-8.79 1.33c-2.28.44-6.35 1.34-9.05 2.02-2.71.67-7.13 1.95-9.83 2.84s-7.36 2.61-10.35 3.83c-2.98 1.22-7.52 3.26-10.08 4.54s-6.87 3.66-9.57 5.29-6.78 4.25-9.05 5.83c-2.28 1.58-6.02 4.4-8.32 6.27s-5.98 5.02-8.18 7.01c-2.21 1.99-6.18 6.06-8.83 9.04-2.66 2.98-6.1 7.05-7.66 9.04-1.55 1.98-4.66 6.41-6.9 9.82-2.24 3.42-5.74 9.46-7.77 13.43-2.04 3.97-4.8 10-6.14 13.41s-3.24 8.99-4.22 12.39c-.98 3.41-2.13 7.83-2.56 9.82-.42 1.98-1.1 5.47-1.49 7.74-.4 2.27-.99 6.69-1.31 9.81-.32 3.13-.58 9.87-.58 14.98s.27 11.85.59 14.98c.32 3.12 1.14 8.7 1.82 12.39s2.07 9.62 3.09 13.17c1.01 3.55 2.8 9.01 3.96 12.13 1.16 3.13 3.46 8.47 5.09 11.88 1.64 3.41 4.45 8.64 6.24 11.62 1.8 2.98 4.42 7.05 5.83 9.04 1.42 1.99 4.1 5.59 5.97 8 1.86 2.42 6.89 7.89 11.17 12.17s9.76 9.35 12.18 11.27c2.42 1.93 7.31 5.44 10.86 7.81 3.56 2.38 9.38 5.83 12.93 7.68 3.56 1.85 8.91 4.39 11.9 5.64s7.58 3.01 10.21 3.9c2.64.89 7.52 2.31 10.87 3.14 3.34.83 8.05 1.86 10.47 2.29 2.42.42 6.61 1.07 9.31 1.44 2.87.39 9.98.67 17.07.67 7 0 14.24-.28 17.07-.66 2.7-.37 6.89-1.02 9.31-1.45s6.72-1.33 9.57-2.01c2.84-.68 7.73-2.09 10.86-3.13 3.13-1.05 8.13-2.93 11.12-4.18 2.99-1.26 8.34-3.8 11.9-5.65 3.55-1.86 9.02-5.06 12.15-7.12s8.14-5.69 11.12-8.07c2.99-2.38 7.51-6.31 10.04-8.74s6.49-6.52 8.79-9.09 5.5-6.4 7.09-8.52c1.6-2.11 4.31-5.93 6.02-8.49s4.53-7.21 6.26-10.33c1.74-3.12 4.42-8.58 5.96-12.13 1.54-3.56 3.74-9.36 4.9-12.92 1.16-3.55 2.56-8.31 3.13-10.58.56-2.27 1.4-6.11 1.86-8.52.46-2.42 1.17-7.18 1.58-10.59.42-3.54.75-10.85.75-17.04 0-6.25-.32-13.58-.75-17.3-.42-3.55-1.32-9.24-2.01-12.65s-2.1-9.05-3.13-12.52c-1.03-3.48-2.7-8.48-3.72-11.11-1.01-2.62-3.67-8.49-5.9-13.04-2.22-4.54-6.22-11.52-8.88-15.51s-6.69-9.55-8.97-12.36-6.87-7.85-10.21-11.21c-3.35-3.36-8.93-8.37-12.42-11.14s-8.9-6.7-12.03-8.73c-3.12-2.04-8.59-5.22-12.15-7.08-3.56-1.85-9.61-4.63-13.45-6.17s-9.77-3.63-13.19-4.64c-3.41-1.01-8.47-2.32-11.25-2.91-2.77-.58-7.43-1.43-10.34-1.88-3.53-.55-9.89-.88-19.01-.99-7.54-.1-14.29-.08-15 .04z" fill="#fff"/><path d="m141.21 1.85c-1 .12-4.37.46-7.5.76s-8.6 1.11-12.16 1.8c-3.55.68-8.91 1.96-11.89 2.83-2.99.86-8.11 2.54-11.38 3.73-3.28 1.18-9.56 3.94-13.97 6.14-4.41 2.19-10.11 5.31-12.67 6.92-2.56 1.62-7.22 4.86-10.35 7.2s-8.25 6.58-11.38 9.42c-3.13 2.85-7.71 7.47-10.18 10.28-2.47 2.8-6.07 7.19-8 9.75-1.93 2.55-4.98 6.97-6.78 9.81-1.81 2.84-4.87 8.3-6.82 12.14-1.94 3.83-4.63 9.76-5.97 13.16-1.34 3.41-3.21 8.87-4.14 12.14-.94 3.27-2.21 8.38-2.83 11.36-.61 2.98-1.46 7.98-1.89 11.1-.42 3.13-.9 9.63-1.07 14.46-.18 5.14-.06 11.67.3 15.75.33 3.84 1.08 9.88 1.67 13.43s1.74 9.01 2.55 12.13c.81 3.13 2.4 8.36 3.53 11.62 1.13 3.27 2.9 7.92 3.93 10.33 1.04 2.42 3.11 6.72 4.62 9.56 1.5 2.84 4.09 7.37 5.77 10.07 1.67 2.69 5.13 7.69 7.69 11.1 2.69 3.58 8.05 9.6 12.69 14.26 4.42 4.43 10.25 9.81 12.95 11.95 2.7 2.15 7.59 5.68 10.86 7.85s10.37 6.13 15.78 8.8c5.4 2.66 12.15 5.65 15 6.65 2.84.99 7.27 2.4 9.83 3.13 2.56.72 6.75 1.77 9.31 2.33s6.98 1.39 9.82 1.84c3 .48 10.19.95 17.07 1.12 7.12.17 14.39.06 18.11-.28 3.41-.31 8.3-.93 10.86-1.36 2.56-.44 7.56-1.51 11.12-2.39 3.56-.87 8.91-2.41 11.9-3.41 2.98-1 8.34-3.1 11.89-4.67 3.56-1.56 8.8-4.13 11.64-5.69 2.85-1.57 7.62-4.47 10.6-6.45 2.99-1.98 8.11-5.75 11.38-8.38 3.28-2.63 9.09-8.01 12.93-11.96 3.85-3.95 8.85-9.61 11.12-12.58 2.27-2.98 5.84-8.08 7.94-11.35 2.1-3.26 5.51-9.42 7.6-13.68 2.08-4.26 4.64-10.07 5.7-12.91 1.05-2.84 2.67-7.72 3.6-10.85.92-3.12 2.17-8.12 2.78-11.1.6-2.98 1.44-7.86 1.87-10.84.43-2.99.92-9.49 1.1-14.46.2-5.45.09-11.92-.27-16.27-.33-3.98-1.07-10.02-1.63-13.43-.57-3.41-1.84-9.27-2.83-13.04-.99-3.76-2.89-9.8-4.23-13.42-1.33-3.62-4.35-10.42-6.7-15.11-2.35-4.68-5.97-11.09-8.05-14.23-2.07-3.14-5.75-8.25-8.17-11.35s-7.54-8.78-11.38-12.62-9.84-9.19-13.34-11.89-8.85-6.48-11.9-8.4c-3.04-1.93-8.56-5.04-12.26-6.92-3.7-1.89-9.28-4.45-12.41-5.71-3.13-1.25-8.83-3.2-12.67-4.32s-9.9-2.6-13.45-3.29c-3.56-.68-8.68-1.5-11.38-1.81s-9.22-.66-14.48-.76c-5.27-.11-10.39-.11-11.38.01z" fill="#633394"/><path d="m139.4 8.32c-3.13.24-8.02.8-10.87 1.25-2.84.46-6.68 1.14-8.53 1.54-1.85.39-6.27 1.54-9.83 2.57-3.55 1.02-9.14 2.92-12.41 4.23-3.27 1.3-8.04 3.4-10.6 4.68-2.57 1.27-7.22 3.85-10.35 5.72-3.13 1.88-8.37 5.43-11.64 7.9s-8.04 6.38-10.6 8.69-6.7 6.46-9.2 9.21c-2.5 2.76-6.14 7.11-8.09 9.67-1.95 2.55-5.09 7.08-6.99 10.07-1.89 2.98-4.69 7.86-6.22 10.84s-3.81 7.98-5.08 11.1c-1.27 3.13-3.03 7.89-3.92 10.59-.88 2.7-2.17 7.35-2.86 10.33s-1.62 7.74-2.06 10.58-1.07 8.19-1.4 11.88c-.35 3.91-.48 9.95-.29 14.46.17 4.26.67 10.54 1.12 13.94.45 3.41 1.29 8.41 1.86 11.11s1.84 7.63 2.82 10.97 2.75 8.57 3.95 11.62 3.6 8.34 5.34 11.75 4.53 8.4 6.21 11.1 5.06 7.58 7.53 10.85c2.46 3.26 7.12 8.7 10.36 12.08 3.24 3.37 7.98 7.89 10.54 10.03s6.4 5.18 8.53 6.75c2.14 1.58 6.27 4.33 9.19 6.11 2.91 1.78 7.68 4.43 10.6 5.89 2.91 1.45 7.74 3.64 10.73 4.86s8.11 3.03 11.38 4.02c3.27.98 8.28 2.29 11.12 2.91 2.85.61 7.5 1.46 10.35 1.88 2.84.43 9.82.91 15.51 1.08 6.52.19 12.83.08 17.07-.32 3.7-.34 9.75-1.18 13.45-1.86s9.63-2.07 13.19-3.08c3.56-1.02 9.14-2.92 12.41-4.23 3.28-1.3 8.45-3.61 11.51-5.14 3.06-1.52 7.95-4.23 10.86-6.01 2.92-1.78 7.05-4.53 9.19-6.11 2.13-1.57 5.97-4.61 8.53-6.75 2.56-2.15 7.31-6.66 10.56-10.04 3.24-3.37 8.01-8.95 10.6-12.4 2.59-3.44 6.49-9.25 8.68-12.91 2.19-3.65 5.13-9.09 6.53-12.07s3.63-8.38 4.94-12c1.32-3.63 3.09-9.32 3.94-12.66.84-3.33 2.01-8.85 2.59-12.26s1.32-9.57 1.63-13.69c.31-4.19.41-10.78.22-14.97-.18-4.12-.79-10.74-1.35-14.72s-1.58-9.55-2.27-12.39-1.99-7.49-2.9-10.33-2.58-7.49-3.7-10.33c-1.13-2.84-3.61-8.19-5.5-11.88-1.9-3.69-5.31-9.5-7.59-12.91s-5.53-7.94-7.22-10.07c-1.7-2.13-4.84-5.73-6.98-8-2.15-2.27-6-6.08-8.56-8.45-2.56-2.38-7.33-6.34-10.6-8.8s-8.51-6.01-11.64-7.89c-3.13-1.87-7.55-4.34-9.83-5.47-2.27-1.14-6.23-2.94-8.79-4.01-2.56-1.06-6.63-2.6-9.05-3.43-2.42-.82-7.08-2.18-10.35-3.01-3.27-.84-8.74-1.99-12.15-2.55-3.42-.56-9.47-1.26-13.45-1.56-3.98-.29-8.87-.5-10.86-.46s-6.18.27-9.31.5z" fill="#fff"/><path d="m143.02 14.24c-1.14.12-4.63.46-7.76.77-3.13.32-8.6 1.16-12.16 1.87-3.55.71-9.14 2.1-12.41 3.09s-8.51 2.85-11.64 4.13-8.13 3.57-11.12 5.1c-2.99 1.52-8.22 4.6-11.64 6.83-3.41 2.23-8.53 5.93-11.38 8.21-2.84 2.29-7.59 6.57-10.54 9.52-2.96 2.95-7.25 7.69-9.54 10.53s-6 7.96-8.25 11.36c-2.25 3.41-5.91 9.92-8.14 14.46-2.22 4.55-5.01 11.05-6.19 14.46s-2.83 8.99-3.67 12.4c-.84 3.4-2.02 9.45-2.62 13.42-.86 5.65-1.1 9.72-1.12 18.59-.01 7.95.25 13.31.87 17.82.48 3.55 1.47 9.13 2.2 12.39.73 3.27 2.32 8.96 3.53 12.66 1.21 3.69 3.58 9.73 5.27 13.42 1.68 3.69 4.79 9.62 6.9 13.17s5.85 9.13 8.31 12.39c2.46 3.27 7.01 8.59 10.12 11.83 3.1 3.23 7.96 7.84 10.8 10.23 2.85 2.39 8.32 6.45 12.16 9.02 3.84 2.56 10.71 6.48 15.26 8.71s10.6 4.9 13.45 5.94c2.84 1.04 8.66 2.77 12.93 3.85s10.55 2.39 13.96 2.9c4.74.72 9.28.95 19.14.96 7.96.01 14.72-.25 17.59-.66 2.56-.37 6.98-1.14 9.83-1.7 2.84-.57 7.9-1.84 11.25-2.82 3.34-.98 8.46-2.73 11.37-3.89 2.92-1.16 8.22-3.59 11.77-5.39 3.56-1.8 9.61-5.37 13.45-7.92 3.84-2.56 9.31-6.61 12.16-9 2.84-2.39 7.7-7 10.8-10.23 3.11-3.24 7.66-8.56 10.12-11.83 2.46-3.26 6.2-8.84 8.31-12.39s5.17-9.36 6.79-12.91 3.99-9.59 5.27-13.43c1.28-3.83 2.91-9.64 3.64-12.91.73-3.26 1.67-8.61 2.09-11.87.43-3.27.94-9.08 1.13-12.91.22-4.27.11-9.99-.28-14.72-.35-4.26-1.21-10.89-1.91-14.72s-1.84-8.95-2.52-11.36-2.07-6.83-3.1-9.81-3.7-9.14-5.93-13.69c-2.23-4.54-5.18-10-6.54-12.13s-4.43-6.55-6.83-9.81c-2.79-3.81-7.36-8.93-12.7-14.24-4.98-4.94-10.75-10.07-14.29-12.69-3.27-2.42-8.05-5.69-10.61-7.26s-6.86-3.96-9.57-5.31c-2.7-1.36-7.35-3.46-10.34-4.68s-8.11-3.03-11.38-4.03c-3.27-.99-8.39-2.3-11.38-2.91-2.99-.62-8.11-1.45-11.38-1.85-3.27-.41-9.44-.84-13.71-.95-4.26-.11-8.68-.12-9.82-.01z" fill="#633394"/><path d="m141.21 23.61-2.85.17c-5.42 17.39-7 22.67-6.99 22.95 0 .31 1.25.46 2.98.37 2.93-.15 2.99-.18 3.6-2.07.53-1.64.9-1.96 2.58-2.29 1.08-.21 2.96-.39 4.17-.39 2.02 0 2.26.14 2.97 1.8.77 1.78.83 1.81 3.88 1.81 1.71 0 3.11-.17 3.12-.39 0-.21-2.27-5.33-5.05-11.38s-5.17-10.94-5.31-10.87c-.14.06-1.54.19-3.1.29zm27.72 1.25c-.18.39-1.46 5.35-2.86 11.03-1.39 5.68-2.49 10.38-2.45 10.45.05.07 1.31.47 2.8.9 1.5.43 2.81.61 2.92.4.1-.21.86-3.12 1.68-6.47.81-3.34 1.6-6.07 1.74-6.06.14 0 1.79 3.44 3.66 7.63l3.39 7.61c4.13 1.2 5.46 1.43 5.61 1.29s1.43-4.79 2.85-10.33c1.41-5.54 2.58-10.42 2.59-10.84.01-.43-.61-.93-1.41-1.12-.79-.19-2.01-.5-2.73-.69-1.26-.33-1.32-.21-2.84 5.65-.85 3.29-1.79 5.98-2.07 5.97-.28 0-1.9-3.09-3.58-6.85s-3.31-7.13-3.62-7.48c-.31-.36-1.37-.79-2.37-.96-.99-.17-2.07-.43-2.4-.57-.32-.14-.73.06-.91.44zm-61.84 5.95c-1.26.43-2.25.99-2.19 1.25.05.26 1.64 5.06 3.53 10.67 1.88 5.61 3.45 10.28 3.49 10.37.03.09 2.74-.69 6.01-1.75 3.27-1.05 6.07-2 6.21-2.11s-.09-1.25-.52-2.53-.89-2.33-1.03-2.32c-.15 0-1.66.48-3.37 1.05-1.7.58-3.16 1.05-3.23 1.04-.07 0-1.35-3.72-2.84-8.27-1.5-4.55-2.95-8.25-3.24-8.22-.28.02-1.55.39-2.82.82z" fill="#fff"/><path d="m141.48 32.66c-.12.36-.48 1.69-.79 2.97s-.49 2.39-.41 2.48c.08.08 1.11-.04 2.28-.26l2.13-.41c-1.7-4.23-2.37-5.45-2.59-5.44s-.5.31-.62.66z" fill="#633394"/><path d="m206.13 38.63c-.67 1.05-3.32 5.39-5.91 9.65-3.66 6.05-4.55 7.88-4.05 8.34.35.32 2.5 1.65 4.78 2.96 2.27 1.31 5.07 2.52 6.21 2.69 1.13.17 3 .07 4.13-.23 1.14-.3 2.88-1.07 3.86-1.73.98-.65 2.33-1.99 3-2.99.66-.99 1.45-2.74 1.76-3.87.39-1.47.38-2.81-.03-4.65-.32-1.42-1.12-3.39-1.78-4.39-.73-1.1-3.08-2.96-5.98-4.75l-4.78-2.94m-122.25 4.77c-.86.39-3.36 1.85-5.55 3.24l-4 2.52c9.31 14.81 12.04 19.17 12.07 19.26.03.08 1.16-.5 2.5-1.3 1.35-.79 2.45-1.61 2.46-1.82s-.8-1.67-1.79-3.23c-1-1.57-1.58-2.95-1.3-3.1.29-.14 2.21.59 4.27 1.62l3.75 1.88c4.63-3.11 5.8-4.15 5.58-4.32-.23-.17-2.57-1.1-5.21-2.07-2.64-.96-4.79-1.87-4.77-2.01s.38-.73.8-1.29c.43-.57.77-1.79.76-2.71 0-.93-.33-2.32-.73-3.1s-1.27-1.95-1.94-2.6c-.69-.66-2.11-1.28-3.28-1.42-1.2-.15-2.72.04-3.62.45z" fill="#fff"/><path d="m206.56 49.44c-1.66 2.77-3.08 5.21-3.15 5.43-.08.21.68.73 1.68 1.16.99.43 2.45.78 3.23.79s2.06-.45 2.84-1.03c.79-.58 1.78-1.75 2.2-2.6.43-.85.78-2.36.78-3.36 0-1.37-.43-2.23-1.81-3.61-1-1-2.02-1.81-2.28-1.81-.25 0-1.82 2.27-3.49 5.03zm-121.73-2.38c-.71.29-1.35.62-1.42.74-.08.13.45 1.27 1.16 2.55 1.12 2.02 1.43 2.26 2.33 1.81.57-.29 1.26-.98 1.55-1.55.28-.57.52-1.27.52-1.55 0-.29-.47-.98-1.04-1.55s-1.21-1.02-1.42-1-.97.27-1.68.55z" fill="#633394"/><path d="m137.84 54.52c-2.84.39-6.91 1.09-9.05 1.56-2.13.47-6.32 1.66-9.31 2.64-2.98.99-7.99 3.04-11.12 4.57-3.13 1.52-7.78 4.13-10.34 5.8-2.56 1.66-6.4 4.43-8.54 6.14-2.13 1.72-6.09 5.44-8.79 8.27-2.7 2.84-6.48 7.34-8.39 10.01-1.91 2.68-4.64 6.96-6.07 9.51-1.43 2.56-3.64 7.21-4.91 10.33-1.27 3.13-2.91 7.89-3.63 10.59s-1.67 6.88-2.13 9.29c-.45 2.42-.94 8.34-1.09 13.17-.2 6.38-.05 10.47.54 14.98.45 3.41 1.5 8.87 2.34 12.13.84 3.27 2.26 7.8 3.16 10.07.9 2.28 2.81 6.46 4.24 9.3 1.44 2.84 3.93 7.12 5.53 9.51 1.6 2.4 4.79 6.58 7.08 9.3s6.37 6.88 9.05 9.24c2.69 2.36 7.33 5.93 10.31 7.92 2.99 2 8.23 4.99 11.64 6.64 3.42 1.65 8.77 3.81 11.9 4.81s8.02 2.29 10.86 2.87c2.85.58 8.2 1.3 11.9 1.6 4.75.39 8.77.39 13.7 0 3.84-.3 9.31-1.02 12.16-1.59 2.84-.57 7.96-1.96 11.38-3.09 3.41-1.13 8.77-3.3 11.9-4.83 3.12-1.53 8.13-4.42 11.12-6.41 2.98-2 7.64-5.58 10.34-7.96 2.7-2.37 6.86-6.63 9.23-9.45s5.53-6.99 7.02-9.27c1.48-2.27 3.54-5.64 4.55-7.48 1.02-1.85 2.78-5.57 3.9-8.27s2.66-6.99 3.41-9.55c.76-2.56 1.84-6.97 2.42-9.81.61-3.07 1.17-8.52 1.36-13.43.21-5.25.09-10.52-.31-14.46-.35-3.41-1.4-9.22-2.33-12.91-.94-3.69-2.66-9.15-3.83-12.13-1.17-2.99-3.47-7.82-5.11-10.74s-4.49-7.43-6.34-10.03c-1.85-2.59-5.58-7.03-8.28-9.86s-6.66-6.55-8.79-8.27c-2.14-1.71-5.98-4.49-8.54-6.16s-6.98-4.17-9.82-5.55c-2.85-1.38-7.04-3.2-9.32-4.04-2.27-.84-6.58-2.13-9.56-2.86-2.99-.74-8.17-1.7-11.51-2.13-3.35-.43-8.93-.76-12.42-.73-3.48.03-8.66.37-11.51.76z" fill="#fff"/><path d="m141.21 60.43c-2.42.26-6.38.85-8.8 1.33-2.41.47-6.84 1.65-9.82 2.62-2.99.97-7.01 2.51-8.94 3.42s-3.49 1.77-3.47 1.92c.02.14 1.13 1.05 2.47 2.03l2.44 1.77c4.81-1.84 8.41-3.05 11.12-3.88 2.7-.82 6.89-1.85 9.31-2.28 2.42-.44 7.42-.93 11.12-1.1 4.03-.18 8.89-.05 12.15.32 2.99.35 7.76 1.17 10.61 1.83 2.84.66 7.32 2.04 9.95 3.06s5.02 1.86 5.31 1.86c.28 0 1.55-.76 2.82-1.68s2.32-1.79 2.34-1.93c.02-.15-1.54-1.01-3.47-1.92-1.93-.92-4.9-2.15-6.61-2.74-1.71-.58-5.31-1.62-8.02-2.29-2.7-.68-6.6-1.48-8.66-1.79s-6.83-.66-10.6-.79c-3.77-.12-8.83-.01-11.25.24z" fill="#00a7e1"/><path d="m229.65 62.91c-1.28.8-2.95 2.37-3.72 3.49-.77 1.11-1.64 3.13-1.94 4.48-.37 1.65-.38 3.25-.03 4.9.28 1.35 1.21 3.44 2.07 4.65s2.31 2.74 3.24 3.41c.92.68 2.49 1.49 3.49 1.82.99.33 2.8.59 4.01.59 1.21-.01 2.84-.26 3.62-.56s2.32-1.17 3.42-1.93c1.11-.77 2.55-2.32 3.22-3.46.67-1.13 1.36-3.11 1.54-4.39s.08-3.25-.22-4.39c-.31-1.13-1.26-3.17-2.13-4.52-1.03-1.62-2.49-2.97-4.28-3.99-2.3-1.31-3.27-1.55-6.34-1.55-3.08-.01-3.96.21-5.95 1.45zm-169.91-.35c-.85.32-2.36 1.17-3.36 1.91-1 .73-2.11 1.69-2.49 2.13-.37.43-1.24 1.95-1.93 3.37-.83 1.7-1.26 3.47-1.25 5.17 0 1.42.43 3.51.94 4.64.52 1.14 1.91 2.94 3.1 4.01 1.27 1.15 3.25 2.26 4.86 2.73 1.75.52 3.46.67 4.79.45 1.13-.19 2.88-.75 3.88-1.25.99-.49 2.8-2.02 4.03-3.41 1.22-1.39 2.47-3.34 2.78-4.33.31-1 .47-3.24.36-4.99-.15-2.52-.52-3.64-1.77-5.42-.87-1.23-2.58-2.94-3.8-3.79-1.8-1.26-2.81-1.57-5.4-1.67-1.75-.06-3.89.14-4.74.45z" fill="#fff"/><path d="m233.33 68.05c-1.01.51-2.15 1.71-2.71 2.83-.53 1.06-.97 2.46-.98 3.1-.01.63.53 1.97 1.19 2.96.66 1 1.77 2.11 2.47 2.48.74.39 2.24.57 3.6.43 1.85-.19 2.67-.61 4.01-2.09 1.26-1.4 1.68-2.32 1.67-3.78 0-1.07-.42-2.64-.93-3.49-.52-.85-1.79-1.96-2.84-2.45-1.05-.5-2.32-.9-2.82-.9-.5.01-1.69.42-2.66.91zm-174.36 2.12c-1.65 1.7-1.96 2.37-2.01 4.39-.06 2.08.17 2.62 1.75 4.19 1.58 1.59 2.13 1.81 4.39 1.81 2.1 0 2.89-.27 4.17-1.42.88-.78 1.82-2.12 2.1-2.97.38-1.19.29-2.08-.43-3.82-.51-1.25-1.56-2.7-2.35-3.23-.81-.54-2.33-.95-3.55-.95-1.79 0-2.43.31-4.07 2z" fill="#633394"/><path d="m136.29 70.21c-2.84.5-6.22 1.21-7.5 1.56s-4.24 1.31-6.59 2.13l-4.27 1.5c5.61 6 8.58 9.54 10.22 11.74s4.06 5.87 5.38 8.14 3.32 6.22 4.45 8.78c1.13 2.55 2.77 6.85 3.63 9.55s2.06 7.23 2.66 10.07c.61 2.84 1.38 7.46 1.73 10.26l.64 5.1h6.72c.99-7.9 1.76-12.52 2.37-15.36.6-2.84 1.8-7.37 2.66-10.07s2.5-7 3.63-9.55c1.13-2.56 3.13-6.51 4.45-8.78s3.78-5.99 5.47-8.27c1.69-2.27 4.66-5.75 6.6-7.74 2.38-2.45 3.31-3.73 2.88-3.98-.36-.21-3.09-1.19-6.08-2.18-2.98-.99-8.16-2.28-11.5-2.86-4.5-.78-8.21-1.04-14.23-1.01-5.37.03-9.91.36-13.32.97zm-35.46 4.6c-2.97 1.95-5.69 3.92-6.05 4.39-.57.74-.25.96 2.72 1.88l3.36 1.03c3.41-2.31 6.03-3.91 8.02-5.05l3.62-2.07c-4.01-2.87-5.42-3.71-5.72-3.71-.3-.01-2.98 1.58-5.95 3.53zm89.26-1.68-2.59 1.84c5.21 2.96 7.83 4.57 9.18 5.48l2.46 1.66c6.33-1.95 6.65-2.17 6.08-2.91-.36-.47-3.09-2.45-6.08-4.41-2.99-1.95-5.67-3.54-5.95-3.53-.28.02-1.68.86-3.1 1.87zm-78.4 5.52c-1.55.86-3.91 2.28-5.26 3.16l-2.45 1.59c8.41 5.2 11.8 7.94 15.55 11.62 3.59 3.52 6.59 7.05 8.55 10.07 1.66 2.56 3.89 6.68 4.97 9.17 1.07 2.48 2.51 6.66 3.2 9.29s1.39 6.29 1.57 8.13c.18 1.85.43 4.35.56 5.56l.24 2.19h4.66c-.01-3.8-.37-7.11-.81-9.81-.43-2.7-1.38-7.23-2.1-10.07-.73-2.84-2.08-7.14-3.01-9.56-.94-2.41-2.75-6.48-4.04-9.03-1.28-2.56-3.74-6.74-5.45-9.3-1.71-2.55-5.05-6.71-7.43-9.23s-4.68-4.75-5.13-4.96c-.5-.24-1.86.21-3.62 1.18zm69.55 2.04c-2.01 2.06-4.59 4.9-5.74 6.32s-3.14 4.21-4.42 6.2-3.32 5.59-4.53 8.01c-1.21 2.41-2.95 6.36-3.87 8.77-.92 2.42-2.28 6.72-3.03 9.56-.74 2.84-1.71 7.49-2.14 10.33s-.78 6.15-.78 7.36l-.01 2.19h4.66c.43-4.6.8-7.8 1.1-10.07s1.31-6.45 2.24-9.3c.93-2.84 2.45-6.67 3.38-8.52.92-1.84 2.75-4.98 4.06-6.97s4.37-5.67 6.79-8.18c2.43-2.52 5.93-5.68 7.77-7.04 1.85-1.36 4.76-3.22 6.47-4.14l3.1-1.68c-4.01-2.56-6.45-4.03-8.01-4.93-1.57-.89-2.97-1.63-3.12-1.64s-1.91 1.67-3.92 3.73z" fill="#00a7e1"/></g><path d="m86.57 86.26 2.41 2.3-1.49 1.55c-.82.86-2.77 3.3-4.35 5.43-1.57 2.13-4.05 5.96-5.51 8.52-1.46 2.55-3.61 7.08-4.77 10.07-1.17 2.98-2.65 7.51-3.3 10.07-.64 2.55-1.46 6.74-1.8 9.29-.39 2.88-.55 8.09-.4 13.69.19 7.47.48 10.1 1.66 15.23.79 3.41 2.02 7.82 2.73 9.81s2.29 5.71 3.5 8.26c1.22 2.56 3.93 7.21 6.02 10.33 2.17 3.24 6.03 7.98 8.98 11.04 2.85 2.95 7.08 6.78 9.4 8.52s6.16 4.32 8.54 5.73c2.37 1.41 6.64 3.55 9.48 4.75 2.85 1.2 7.39 2.78 10.09 3.51s7.01 1.67 9.57 2.09c2.66.44 8.03.77 12.54.77 4.34 0 9.58-.25 11.64-.56s6.08-1.13 8.92-1.83c2.85-.69 7.27-2.09 9.83-3.1 2.56-1.02 6.4-2.78 8.53-3.93 2.14-1.15 5.98-3.5 8.54-5.22 2.79-1.88 7.26-5.73 11.16-9.61 4.76-4.74 7.56-8.07 10.44-12.42 2.17-3.26 4.91-8.03 6.1-10.58 1.18-2.56 2.81-6.62 3.63-9.04.81-2.41 2-6.71 2.64-9.55 1-4.48 1.16-6.68 1.18-16.53.01-9.06-.17-12.3-.93-16.01-.53-2.55-1.75-7.08-2.73-10.07-.98-2.98-2.92-7.74-4.31-10.58s-3.85-7.14-5.47-9.56c-1.62-2.41-3.97-5.61-5.22-7.1s-2.28-2.88-2.29-3.1c0-.21.4-.78.91-1.27.88-.85 1.05-.75 3.54 2.06 1.44 1.63 3.79 4.47 5.22 6.32 1.44 1.84 3.46 4.69 4.5 6.32s3.02 5.24 4.41 8.01c1.39 2.76 3.36 7.47 4.38 10.45 1.01 2.99 2.3 7.52 2.87 10.07.56 2.56 1.3 7.21 1.64 10.33.36 3.35.49 8.44.31 12.39-.17 3.7-.69 8.93-1.16 11.62-.46 2.7-1.64 7.58-2.62 10.85-1 3.37-3.31 9.06-5.33 13.17-1.96 3.97-4.86 9.09-6.46 11.36-1.59 2.27-4.7 6.2-6.9 8.73s-6.09 6.35-8.65 8.49c-2.56 2.13-6.87 5.33-9.57 7.11-2.7 1.77-7.36 4.37-10.34 5.77-2.99 1.41-7.65 3.28-10.35 4.17-2.7.88-7.12 2.09-9.83 2.69-3.65.8-7.51 1.15-15 1.36-6.44.18-11.76.06-14.74-.33-2.56-.34-6.86-1.16-9.57-1.82-2.7-.66-7.24-2.07-10.08-3.13-2.85-1.06-6.92-2.81-9.05-3.88-2.14-1.07-5.98-3.32-8.54-5s-6.75-4.81-9.31-6.96c-2.56-2.14-6.05-5.47-7.76-7.4s-4.68-5.62-6.6-8.2c-2.03-2.71-5.14-7.98-7.36-12.45-2.36-4.73-4.55-10.05-5.63-13.68-.97-3.27-2.19-8.26-2.7-11.1-.69-3.8-.93-7.77-.93-14.98s.24-11.18.93-14.98c.51-2.84 1.74-7.83 2.73-11.1.99-3.26 3.08-8.61 4.63-11.88 1.56-3.26 3.79-7.45 4.95-9.29 1.16-1.85 3.29-4.87 4.72-6.71 1.44-1.85 3.78-4.69 5.2-6.32m68.6 53.09c7.7.14 12.15.48 16.29 1.23 3.98.73 5.88 1.32 6.32 1.95.35.5 1.08 2.07 1.62 3.49s1.12 3.69 1.63 7.49h-28.19c-18.45 0-28.19-.18-28.19-.51 0-.29.26-1.74.58-3.23.31-1.49 1.13-3.93 1.81-5.42 1.18-2.62 1.33-2.74 3.95-3.25 1.49-.3 4.22-.76 6.07-1.02 1.85-.27 4.3-.59 5.43-.71 1.14-.12 6.84-.13 12.68-.02zm-33.88 17.29c2.57.02 2.58.03 1.29.86-.71.46-3.51 3.06-6.22 5.78-4.16 4.17-5.34 5.75-10.07 15.09l-7.24-.36c-3.99-.2-7.3-.45-7.38-.56-.07-.1.61-1.29 1.51-2.64s3.43-4.19 5.61-6.32 5.23-4.63 6.77-5.54c1.54-.92 5.12-2.72 7.97-4 3.98-1.8 5.76-2.33 7.76-2.31zm13.45-.04c2.84-.01 5.33.16 5.54.38.2.22-.21 1.51-.91 2.86s-1.83 4.37-2.5 6.71c-.68 2.34-1.55 5.95-2.65 11.76l-24.05-.01.55-1.42c.31-.78 1.23-2.7 2.06-4.26s2.5-4.01 3.71-5.44c1.22-1.43 3.14-3.43 4.28-4.46 1.14-1.02 3.58-2.81 5.43-3.98 3.35-2.11 3.38-2.12 8.54-2.14zm9.68.01h16.95l.98 1.68c.54.92 1.6 3.42 2.37 5.55.76 2.13 1.83 5.73 2.38 8 .54 2.28.99 4.77 1 6.98h-15.26c-14.92 0-15.26-.03-15.26-1.04 0-.57.34-2.6.75-4.52.41-1.91 1.25-5.11 1.86-7.1.61-1.98 1.81-4.95 2.67-6.58m27.95-2.96c4.78.01 5.53.15 7.63 1.37 1.28.75 3.73 2.46 5.43 3.8 1.71 1.34 4.19 3.81 5.52 5.47 1.32 1.67 3.24 4.66 4.25 6.65 1.02 1.99 1.86 3.79 1.86 4 .01.21-5.4.39-24.04.4l-.7-4.01c-.38-2.2-1.28-5.86-2-8.14-.71-2.27-1.74-5-2.27-6.06-.54-1.07-.98-2.29-.98-2.72 0-.63.93-.77 5.3-.76zm11.06-.01 3.33-.01c2.95 0 3.89.28 8.25 2.46 2.7 1.35 6.75 3.85 9 5.55 2.25 1.71 5.13 4.26 6.4 5.68s2.98 3.57 3.79 4.78c.82 1.21 1.43 2.28 1.36 2.38-.07.11-3.39.36-14.61.92l-2.11-4.3c-1.16-2.36-3.22-5.69-4.58-7.39-1.35-1.7-3.19-3.76-4.09-4.57s-2.78-2.38-4.19-3.49m-93.91 13.48c.29 0 .52.12.52.26s-.61 1.25-1.36 2.45c-.75 1.21-1.46 2.31-1.56 2.46-.11.14-.44.02-.72-.26-.35-.35 0-1.25 1.04-2.71.87-1.21 1.8-2.2 2.08-2.2zm124.84.51c.33-.01 1.14.75 1.81 1.68.67.92 1.01 1.86.77 2.08-.24.21-1.05-.54-1.81-1.68-.75-1.14-1.1-2.08-.77-2.08zm-128.46 8.18 19.78.43c10.89.24 31.89.44 46.69.44 14.79 0 35.45-.18 64.91-.78l-.91 1.59c-.49.87-1.54 2.38-3.75 5.12h-122.06l-1.43-1.77c-.78-.97-1.83-2.5-2.33-3.4m64.79 7.76c45.99 0 57.94.13 57.95.64.01.36-2.43 3.03-10.88 11.23h-94.14l-5.45-5.29c-3-2.91-5.44-5.58-5.43-5.94.01-.51 11.96-.64 57.95-.64z" fill="#633394"/><path d="m108.95 208.76c.31.35 3.22 1.96 6.46 3.56 3.23 1.61 8.09 3.63 10.8 4.5 2.7.87 6.89 2 9.31 2.51 3.35.7 6.78.92 14.48.92s11.13-.22 14.48-.92c2.42-.51 6.61-1.63 9.31-2.5 2.71-.86 7.57-2.89 10.8-4.5 3.24-1.61 6.15-3.23 6.47-3.6.47-.54-7.03-.66-41.05-.64-33.26.02-41.52.15-41.06.67z" fill="#00a7e1" fill-rule="nonzero"/><path d="m99.42 243.3c-.28.67-2.29 5.17-4.46 10-2.16 4.83-3.93 8.95-3.93 9.16 0 .22 1.11.86 2.46 1.44 1.35.57 2.63 1.04 2.85 1.03.21-.01.38-.19.37-.4s.57-1.72 1.29-3.36l1.31-2.97c3.81 1.64 5.73 2.24 6.72 2.39 1.36.21 2.27-.02 3.63-.93.99-.66 2.33-2.25 2.97-3.53.65-1.27 1.18-3.01 1.18-3.86.01-.86-.52-2.37-1.18-3.36-.86-1.31-2.41-2.41-5.57-3.96-2.41-1.18-5-2.31-5.75-2.5-1.13-.3-1.46-.15-1.89.85zm93.25 1.66c-2.56 1.18-4.94 2.32-5.3 2.53-.47.28.59 3.11 4 10.58 3.76 8.25 4.82 10.17 5.56 10.01.5-.11 3.13-1.22 5.83-2.49 2.7-1.26 4.98-2.33 5.06-2.39.08-.05-.26-1.02-.76-2.16-.5-1.13-.97-2.18-1.05-2.32s-1.49.38-3.12 1.15c-1.64.77-3.15 1.41-3.36 1.42-.22.01-.63-.74-.91-1.67-.39-1.25-.36-1.77.13-2.05.35-.21 1.63-.79 2.84-1.3 1.21-.5 2.21-1.02 2.21-1.16.01-.15-.34-1.13-.77-2.2-.43-1.06-1.08-1.93-1.44-1.92-.35 0-1.69.47-2.97 1.04s-2.44 1.04-2.59 1.05c-.14 0-.6-.71-1.03-1.57-.43-.87-.66-1.64-.52-1.72.15-.08 1.54-.71 3.11-1.4 1.56-.69 2.91-1.26 2.98-1.27.08-.01-.21-1.01-.64-2.21-.54-1.49-1.08-2.18-1.7-2.15-.5.02-3 1.01-5.56 2.2z" fill="#fff" fill-rule="nonzero"/><path d="m102.35 251.3c-.62 1.31-1.1 2.47-1.05 2.58.04.11 1.04.48 2.21.84 2.02.61 2.18.58 3.12-.65.55-.71.99-1.7.98-2.19-.01-.5-.78-1.37-1.7-1.94-.93-.56-1.85-1.03-2.05-1.03-.21 0-.88 1.07-1.51 2.39z" fill="#633394" fill-rule="nonzero"/><path d="m121.87 252.91c-.18 1.07-1.08 6.05-2 11.08l-1.68 9.14c3.81.84 5.15 1.08 5.43 1.08.29 0 .76-1.45 1.05-3.23.29-1.77.64-3.28.77-3.35.14-.07.42-.04.64.07.21.11 1.03 1.85 1.81 3.87 1.07 2.78 1.7 3.74 2.58 3.94.64.15 2.27.44 3.61.65 1.35.21 2.45.32 2.46.25s-1.04-2.22-2.32-4.78-2.33-4.82-2.33-5.03c0-.22.75-.62 1.67-.91.99-.3 2.16-1.25 2.87-2.32.82-1.26 1.18-2.55 1.17-4.26-.01-1.81-.33-2.83-1.22-3.88-.67-.78-1.89-1.69-2.72-2.03s-3.37-.98-5.64-1.43c-2.28-.45-4.52-.81-4.99-.8-.57 0-.95.62-1.16 1.94zm44.16.05c-4.16.84-4.39.96-4.26 2.16.07.7.97 5.69 2 11.09 1.02 5.39 1.89 9.88 1.93 9.96.04.09 2.52-.32 5.51-.91 3.49-.69 6.12-1.53 7.37-2.35 1.06-.7 2.5-2.27 3.19-3.47.69-1.21 1.42-3.01 1.61-4.01.2-.99.09-2.97-.23-4.39-.34-1.5-1.28-3.42-2.25-4.59-.92-1.1-2.61-2.47-3.74-3.02-1.14-.56-3.12-1.09-4.4-1.19-1.28-.09-4.31.23-6.73.72zm-19.13 12.99v11.36h5.69v-22.72h-5.69" fill="#fff" fill-rule="nonzero"/><path d="m127.04 257.82c-.17.64-.3 1.8-.31 2.58 0 .99.31 1.5 1.03 1.68.57.14 1.62-.09 2.33-.52.82-.5 1.29-1.24 1.29-2.07 0-.76-.48-1.6-1.16-2.06-.64-.43-1.55-.78-2.02-.78s-1 .53-1.16 1.17zm42.23-.34c-.82.15-1.09.48-.92 1.11.14.5.62 2.88 1.06 5.29.45 2.42.92 4.8 1.05 5.3.18.7.6.84 1.91.63.93-.16 2.33-.91 3.12-1.68.78-.77 1.56-2.1 1.71-2.95.15-.86-.03-2.46-.4-3.57s-1.26-2.44-1.97-2.96-1.99-1.05-2.85-1.16c-.85-.12-2.07-.12-2.71-.01z" fill="#633394" fill-rule="nonzero"/></g></svg>